# xmcd CD database file
#
# Track frame offsets:
#	150
#	27901
#	43848
#	57414
#	71484
#	88221
#	109850
#	146043
#	162869
#	179077
#	202446
#	225260
#	255536
#	274351
#	303607
#	323054
#
# Disc length: 4613 seconds
#
# Revision: 0
# Processed by: cddbd v1.4PL0 Copyright (c) Steve Scherf et al.
# Submitted via: CDex 1.50Beta6
#
DISCID=f6120310
DTITLE=Jazz Club - Le Petit Journal Montparnasse
DYEAR=2002
DGENRE=Jazz
TTITLE0=Eddy Louis Trio - Blind Man (with Julio Rakotonanahary and Paco Séry)
TTITLE1=Richard Galliano - Caruso (with Jean François Jenny-Clarck and Daniel Humair)
TTITLE2=Biréli Lagrène - Daphné (with Holzmano Lagrène, Hono Winterstein, Diègo Imbert and Florin Niculescu)
TTITLE3=Didier Lockwood - Les valseuses (with Biréli Lagrène and Niels-Hennimg Orsted-Pedersen)
TTITLE4=Michel Petrucciani - Besame Mucho (solo)
TTITLE5=Martial Solal and Jhonny Griffin - In and Out (duo)
TTITLE6=Eddy Louis and Michel Petrucciani - Caravan (duo)
TTITLE7=Richard Galliano - Laurita (with Palle Danielsson, Joey Baron and Toods Thielemans)
TTITLE8=Philip Catherine - Coffee Groove (with Baret Joris, Hein Van de Geyn and Hans Oosterhout)
TTITLE9=Sylvain Luc, Jean Marc Jafet and André Ceccarelli - Mojo (trio Sud)
TTITLE10=Richard Galliano and Michel Portal - Viaggio (duo)
TTITLE11=Steve Grossman Quartet - Inner Circle (with Michel Petrucciani, Andy McKee and Joe Farnsworth)
TTITLE12=Richard Galliano - Tango pour Claude (with Biréli Lagrène, Pierre Michelot and Charles Bellonzi)
TTITLE13=Anne Ducros - Ode to Billie Joe (with Emmanuel Sourdeix, Gilles Nicolas and Manu Roche) - guest Didier Lockwood (trumpet)
TTITLE14=Biréli Lagrène and Sylvain Luc - Syracuse ( duo)
TTITLE15=Richard Galliano and Eddy Louis - Sang Mêlé (duo)
EXTD=YEAR: 2002
EXTT0=
EXTT1=
EXTT2=
EXTT3=
EXTT4=
EXTT5=
EXTT6=
EXTT7=
EXTT8=
EXTT9=
EXTT10=
EXTT11=
EXTT12=
EXTT13=
EXTT14=
EXTT15=
PLAYORDER=
